<svg width="18" height="6" viewBox="0 0 18 6" fill="none" xmlns="http://www.w3.org/2000/svg">
<path fill-rule="evenodd" clip-rule="evenodd" d="M18 5.32305C18 5.5492 17.4801 5.73254 16.8387 5.73254L1.16129 5.73254C0.519928 5.73254 -6.78526e-08 5.5492 -4.37114e-08 5.32305C-1.95703e-08 5.0969 0.519928 4.91357 1.16129 4.91357L16.8387 4.91357C17.4801 4.91357 18 5.0969 18 5.32305Z" fill="#343C6A"/>
<path fill-rule="evenodd" clip-rule="evenodd" d="M18 2.86651C18 3.09266 17.5523 3.27599 17 3.27599L1 3.27599C0.447716 3.27599 -6.78525e-08 3.09266 -4.37114e-08 2.86651C-1.95703e-08 2.64036 0.447716 2.45703 1 2.45703L17 2.45703C17.5523 2.45703 18 2.64036 18 2.86651Z" fill="#343C6A"/>
<path fill-rule="evenodd" clip-rule="evenodd" d="M18 0.40948C18 0.635629 17.4801 0.818959 16.8387 0.81896L1.16129 0.818961C0.519928 0.818961 -6.78526e-08 0.635631 -4.37115e-08 0.409481C-1.95704e-08 0.183332 0.519928 1.61527e-06 1.16129 1.55353e-06L16.8387 -2.07859e-08C17.4801 -1.06934e-07 18 0.18333 18 0.40948Z" fill="#343C6A"/>
</svg>
