<svg width="18" height="7" viewBox="0 0 18 7" fill="none" xmlns="http://www.w3.org/2000/svg">
<path fill-rule="evenodd" clip-rule="evenodd" d="M18 5.93716C18 6.18939 17.4801 6.39385 16.8387 6.39385L1.16129 6.39385C0.519928 6.39385 -6.78525e-08 6.18939 -4.37114e-08 5.93716C-1.95703e-08 5.68494 0.519928 5.48047 1.16129 5.48047L16.8387 5.48047C17.4801 5.48047 18 5.68494 18 5.93716Z" fill="#343C6A"/>
<path fill-rule="evenodd" clip-rule="evenodd" d="M18 3.19693C18 3.44915 17.5523 3.65362 17 3.65362L1 3.65362C0.447716 3.65362 -6.78525e-08 3.44915 -4.37114e-08 3.19693C-1.95703e-08 2.9447 0.447716 2.74023 1 2.74023L17 2.74023C17.5523 2.74023 18 2.9447 18 3.19693Z" fill="#343C6A"/>
<path fill-rule="evenodd" clip-rule="evenodd" d="M18 0.456692C18 0.708916 17.4801 0.913384 16.8387 0.913384L1.16129 0.913386C0.519928 0.913386 -6.78526e-08 0.708918 -4.37115e-08 0.456694C-1.95704e-08 0.20447 0.519928 1.80151e-06 1.16129 1.73265e-06L16.8387 -2.31824e-08C17.4801 -1.19263e-07 18 0.204468 18 0.456692Z" fill="#343C6A"/>
</svg>
