<svg width="375" height="812" viewBox="0 0 375 812" fill="none" xmlns="http://www.w3.org/2000/svg">
<path fill-rule="evenodd" clip-rule="evenodd" d="M0 0H375V812H0V0ZM76.9593 735.629C117.129 735.629 149.693 665.512 149.693 579.019C149.693 553.241 133.587 553.749 116.768 554.278C103.418 554.699 89.619 555.133 83.0698 542.448C76.9658 530.624 79.4699 503.061 81.8081 477.326C84.4052 448.74 86.7975 422.409 76.9593 422.409C36.7897 422.409 4.22582 492.526 4.22582 579.019C4.22582 665.512 36.7897 735.629 76.9593 735.629ZM241.863 390.786C195.806 373.3 165.053 278.732 173.174 179.562C181.295 80.3928 225.215 14.1754 271.272 31.6616C317.329 49.1479 348.082 143.716 339.961 242.886C337.972 267.174 324.434 255.945 309.737 243.754C296.507 232.778 282.336 221.024 274.806 233.703C266.727 247.307 264.169 281.461 261.693 314.505C258.575 356.133 255.589 395.998 241.863 390.786ZM68.347 170.802C30.6 200.385 11.1374 290.254 24.8762 371.531C28.9708 395.754 44.025 383.416 59.7452 370.533C72.2234 360.306 85.1212 349.736 93.2905 356.833C100.904 363.449 102.929 391.193 104.82 417.098C106.92 445.873 108.855 472.378 118.1 465.133C155.847 435.55 175.309 345.681 161.57 264.404C147.832 183.127 106.094 141.22 68.347 170.802ZM282.963 380.71C333.794 400.008 367.734 504.378 358.771 613.827C349.809 723.275 301.337 796.355 250.506 777.057C199.676 757.758 165.735 653.388 174.698 543.94C176.893 517.134 191.834 529.528 208.054 542.982C222.656 555.095 238.295 568.068 246.606 554.074C255.522 539.061 258.346 501.366 261.077 464.898C264.519 418.955 267.814 374.958 282.963 380.71Z" fill="#4880FF"/>
</svg>
